<svg width="32" height="32" viewBox="0 0 32 32" fill="none" xmlns="http://www.w3.org/2000/svg">
<path d="M25.4361 6.57056C22.6601 3.79322 18.8734 2.39189 14.8974 2.71189C9.5521 3.14122 4.86677 6.85856 3.29877 11.9866C2.17877 15.6506 2.64944 19.4759 4.47344 22.6359L2.74544 28.3732C2.5801 28.9239 3.08277 29.4426 3.63877 29.2946L9.6441 27.6852C11.5894 28.7466 13.7788 29.3052 16.0081 29.3066H16.0134C21.6068 29.3066 26.7748 25.8852 28.5628 20.5852C30.3041 15.4172 29.0161 10.1546 25.4361 6.57056ZM22.5308 20.7386C22.2534 21.5159 20.8948 22.2652 20.2841 22.3199C19.6734 22.3759 19.1014 22.5959 16.2908 21.4879C12.9081 20.1546 10.7721 16.6866 10.6068 16.4652C10.4401 16.2426 9.2481 14.6612 9.2481 13.0239C9.2481 11.3866 10.1081 10.5812 10.4134 10.2492C10.7188 9.91589 11.0788 9.83322 11.3014 9.83322C11.5228 9.83322 11.7454 9.83322 11.9388 9.84122C12.1761 9.85056 12.4388 9.86256 12.6881 10.4159C12.9841 11.0746 13.6308 12.7199 13.7134 12.8866C13.7961 13.0532 13.8521 13.2479 13.7414 13.4692C13.6308 13.6906 13.5748 13.8292 13.4094 14.0239C13.2428 14.2186 13.0601 14.4572 12.9108 14.6066C12.7441 14.7719 12.5708 14.9532 12.7641 15.2852C12.9588 15.6186 13.6254 16.7079 14.6148 17.5892C15.8868 18.7226 16.9574 19.0732 17.2908 19.2412C17.6241 19.4079 17.8174 19.3799 18.0121 19.1572C18.2068 18.9359 18.8441 18.1866 19.0654 17.8532C19.2868 17.5199 19.5094 17.5759 19.8148 17.6866C20.1201 17.7972 21.7561 18.6026 22.0881 18.7692C22.4214 18.9359 22.6428 19.0186 22.7254 19.1572C22.8081 19.2946 22.8081 19.9612 22.5308 20.7386Z" fill="white"/>
</svg>
